<svg width="454" height="534" viewBox="0 0 454 534" fill="none" xmlns="http://www.w3.org/2000/svg">
<g filter="url(#filter0_di_157_8979)">
<path d="M-39.644 241.902C112.645 126.643 237.522 152.812 280.924 180.304C362.668 162.119 332.801 192.752 320.498 200.236C308.194 207.72 208.832 250.523 154.321 308.368C151.293 390.182 85.7672 455.104 99.5128 412.862C110.509 379.068 96.548 359.653 88.1928 354.169C-86.3036 495.218 -146.935 636.455 -155.438 689.443C-104.544 694.065 -86.4496 725.604 -83.7641 740.796C-137.83 747.557 -165.751 739.466 -172.954 734.575C-179.895 761.483 -229.926 771.665 -287.394 790.606C-281.534 752.544 -218.396 708.491 -187.56 691.223C-215.821 494.691 -151.619 357.663 -115.985 313.715C-105.445 295.751 -136.353 267.399 -153.125 255.469C-139.164 222.386 -71.6539 232.64 -39.644 241.902Z" fill="#A8F2FF"/>
</g>
<g filter="url(#filter1_i_157_8979)">
<path d="M-44.5345 255.909C-79.607 239.903 -121.287 247.612 -137.742 253.467C-119.786 277.7 -88.1873 328.165 -105.44 336.17C-127.005 346.175 -131.281 365.073 -140.869 381.748C-148.538 395.087 -143.591 413.985 -140.159 421.766C-138.608 437.484 -140.877 445.628 -149.078 453.781C-157.279 461.933 -173.993 489.713 -176.591 509.963C-181.314 546.779 -179.791 577.023 -175.806 588.732C-190.413 626.972 -184.528 659.06 -179.76 670.324C-172.264 688.821 -183.905 704.118 -190.662 709.454C-211.223 715.146 -242.748 754.513 -255.94 773.486C-216.696 763.168 -182.9 735.984 -170.907 723.681C-149.915 736.308 -118.513 733.091 -105.437 729.904C-135.371 699.002 -159.101 713.232 -166.447 707.674C-172.324 703.228 -170.777 688.925 -169.269 682.329C-153.048 538.975 -0.71994 399.571 75.2184 342.209C86.4383 338.829 99.4441 339.799 104.959 343.652C112.504 355.591 120.644 378.401 115.154 395.742C126.624 388.628 141.312 330.23 147.223 301.921C169.836 263.324 243.258 216.174 277.143 197.423C276.161 189.597 250.178 187.79 237.309 187.865L209.217 171.637C135.711 140.337 9.42194 214.776 -44.5345 255.909Z" fill="#41A4C5"/>
</g>
<path d="M230.009 226.484L213.421 219.412L200.459 201.299L212.056 196.037M230.009 226.484L231.662 237.332M230.009 226.484L245.184 234.611M230.009 226.484L246.211 223.99M236.297 215.964L208.523 213.467M208.523 213.467L238.855 203.446M208.523 213.467L222.533 198.931M251.232 199.357L238.855 203.446M238.855 203.446L243.708 195.327M238.855 203.446L242.956 209.869M247.057 216.292L242.956 209.869M242.956 209.869C245.909 208.833 252.629 208.226 255.891 214.079M235.926 194.329L222.533 198.931M222.533 198.931C224.062 197.518 226.117 195.401 227.968 193.087M222.533 198.931L203.597 205.999L212.056 196.037M232.308 182.579C233.348 185.214 230.917 189.4 227.968 193.087M227.457 181.793L227.968 193.087M220.515 186.076L212.056 196.037M212.056 196.037L210.569 177.579M212.056 196.037L208.798 187.349L197.755 181.736M210.569 177.579L215.217 169.803M210.569 177.579L206.207 164.978" stroke="#A8F2FF" stroke-width="1.28517" stroke-linecap="round"/>
<g filter="url(#filter2_i_157_8979)">
<path d="M-35.6693 258.849C-66.7561 244.518 -114.801 250.261 -129.45 255.622C-125.125 277.347 -70.9855 331.29 -86.3517 338.598C-105.56 347.733 -118.469 352.556 -127.066 367.673C-133.943 379.766 -141.229 400.669 -138.215 407.692C-136.912 421.898 -127.378 449.516 -134.703 456.921C-142.028 464.326 -168.437 495.79 -170.851 514.186C-175.22 547.496 -174.363 576.187 -170.877 586.759C-184.036 621.396 -184.229 644.126 -180.046 654.292C-173.472 670.988 -178.408 705.311 -184.438 710.164C-198.257 719.656 -216.627 738.374 -228.437 755.583C-193.52 746.094 -179.242 728 -168.528 716.828C-149.936 728.16 -134.285 730.771 -122.651 727.836C-149.103 700.014 -158.779 719.167 -172.018 704.605C-176.394 699.791 -165.659 659.774 -164.288 653.804C-157.817 598.172 -127.752 532.921 -87.7136 480.055C-34.4125 409.678 34.8971 356.09 73.5803 326.294C85.5799 320.976 95.4306 322.865 102.438 327.867C115.425 337.138 129.883 350.291 124.923 365.994C135.147 359.514 138.74 322.696 144.125 297.073C164.398 262.081 220.223 221.755 250.417 204.662C249.581 197.59 226.504 196.061 215.07 196.181L190.186 181.62C125.023 153.615 12.4645 221.437 -35.6693 258.849Z" fill="#137D9F"/>
</g>
<g filter="url(#filter3_i_157_8979)">
<path d="M-38.1971 290.589C-88.4803 326.34 -97.11 403.902 -95.1394 438.213C-59.8596 442.125 -1.15106 363.36 23.7932 323.489C73.6964 331.669 83.9607 318.003 82.855 310.147C77.4262 301.255 95.7168 292.361 105.541 289.026C126.244 275.018 147.756 254.564 155.242 238.334C162.729 222.104 151.3 224.105 141.24 214.101C133.191 206.098 141.685 197.131 146.938 193.647C143.69 176.929 125.822 181.939 117.295 186.534C113.847 197.725 95.4747 222.285 49.5611 231.002C3.64744 239.719 -28.0751 274.358 -38.1971 290.589Z" fill="#006182"/>
</g>
<path d="M4.05974 362.932C1.3669 367.122 2.89905 378.207 4.00173 383.226L18.1152 371.816C19.556 368.83 16.7372 363.945 15.1478 361.875C17.9308 355.792 13.8082 350.02 11.3989 347.894L11.7878 345.183L5.78075 344.529L6.5183 348.125C2.80498 350.84 3.33204 359.127 4.05974 362.932Z" stroke="#F4F3DE" stroke-width="2" stroke-linecap="round"/>
<path d="M95.3053 270.114C103.279 269.753 130.785 294.656 142.313 306.266L144.912 296.939C153.375 285.703 168.524 266.5 174.933 259.841L148.091 242.267L122.97 225.58L120.906 227.691L139.648 251.376L122.564 267.651L97.6567 261.676L95.3053 270.114Z" stroke="#F4F3DE" stroke-width="2"/>
<path d="M117.871 277.422L104.624 270.216L105.552 266.885L119.233 272.536L117.871 277.422Z" fill="#006182" fill-opacity="0.6"/>
<path d="M40.4612 314.736L34.1779 297.387M34.1779 297.387C37.3589 296.424 37.1828 294.364 35.8424 289.888M34.1779 297.387C31.3899 298.701 30.1149 297.519 28.2791 292.495M34.1779 297.387L31.9484 291.23" stroke="#F4F3DE" stroke-width="2"/>
<path d="M24.523 266.961C24.8737 264.924 26.4962 261.764 30.1804 265.421C29.789 267.496 28.1097 270.71 24.523 266.961Z" fill="#F4F3DE"/>
<path d="M11.8477 270.412L24.523 266.961M24.523 266.961C24.8737 264.924 26.4962 261.764 30.1804 265.421C29.789 267.496 28.1097 270.71 24.523 266.961Z" stroke="#F4F3DE" stroke-width="2"/>
<ellipse cx="6.43045" cy="6.00062" rx="6.43045" ry="6.00062" transform="matrix(0.972398 0.233327 -0.268387 0.963311 75.1057 239.717)" fill="#A8F2FF"/>
<ellipse cx="7.62128" cy="7.38538" rx="7.62128" ry="7.38538" transform="matrix(0.972398 0.233327 -0.268387 0.963311 70.3403 212.484)" fill="#A8F2FF"/>
<ellipse cx="2.62057" cy="2.77032" rx="2.62057" ry="2.77032" transform="matrix(0.972398 0.233326 -0.268388 0.963311 97.9978 226.712)" fill="#A8F2FF"/>
<g filter="url(#filter4_f_157_8979)">
<ellipse cx="21.976" cy="21.876" rx="21.976" ry="21.876" transform="matrix(0.540101 -0.8416 0.866327 0.499477 21.8618 294.768)" fill="#A8F2FF" fill-opacity="0.2"/>
</g>
<g filter="url(#filter5_f_157_8979)">
<ellipse cx="21.976" cy="21.876" rx="21.976" ry="21.876" transform="matrix(0.540101 -0.8416 0.866327 0.499476 135.752 215.364)" fill="#A8F2FF" fill-opacity="0.2"/>
</g>
<g filter="url(#filter6_f_157_8979)">
<ellipse cx="21.976" cy="21.876" rx="21.976" ry="21.876" transform="matrix(0.540101 -0.8416 0.866327 0.499477 85.3455 348.426)" fill="#A8F2FF" fill-opacity="0.2"/>
</g>
<g filter="url(#filter7_f_157_8979)">
<ellipse cx="13.7935" cy="13.8783" rx="13.7935" ry="13.8783" transform="matrix(0.540101 -0.8416 0.866327 0.499477 -44.7625 338.312)" fill="#A8F2FF" fill-opacity="0.2"/>
</g>
<defs>
<filter id="filter0_di_157_8979" x="-291.394" y="156.71" width="631.469" height="641.896" filterUnits="userSpaceOnUse" color-interpolation-filters="sRGB">
<feFlood flood-opacity="0" result="BackgroundImageFix"/>
<feColorMatrix in="SourceAlpha" type="matrix" values="0 0 0 0 0 0 0 0 0 0 0 0 0 0 0 0 0 0 127 0" result="hardAlpha"/>
<feOffset dy="4"/>
<feGaussianBlur stdDeviation="2"/>
<feComposite in2="hardAlpha" operator="out"/>
<feColorMatrix type="matrix" values="0 0 0 0 0 0 0 0 0 0.380392 0 0 0 0 0.509804 0 0 0 0.4 0"/>
<feBlend mode="normal" in2="BackgroundImageFix" result="effect1_dropShadow_157_8979"/>
<feBlend mode="normal" in="SourceGraphic" in2="effect1_dropShadow_157_8979" result="shape"/>
<feColorMatrix in="SourceAlpha" type="matrix" values="0 0 0 0 0 0 0 0 0 0 0 0 0 0 0 0 0 0 127 0" result="hardAlpha"/>
<feOffset dy="4"/>
<feGaussianBlur stdDeviation="2"/>
<feComposite in2="hardAlpha" operator="arithmetic" k2="-1" k3="1"/>
<feColorMatrix type="matrix" values="0 0 0 0 0 0 0 0 0 0.380392 0 0 0 0 0.509804 0 0 0 0.6 0"/>
<feBlend mode="normal" in2="shape" result="effect2_innerShadow_157_8979"/>
</filter>
<filter id="filter1_i_157_8979" x="-255.94" y="164.155" width="533.083" height="613.331" filterUnits="userSpaceOnUse" color-interpolation-filters="sRGB">
<feFlood flood-opacity="0" result="BackgroundImageFix"/>
<feBlend mode="normal" in="SourceGraphic" in2="BackgroundImageFix" result="shape"/>
<feColorMatrix in="SourceAlpha" type="matrix" values="0 0 0 0 0 0 0 0 0 0 0 0 0 0 0 0 0 0 127 0" result="hardAlpha"/>
<feOffset dy="4"/>
<feGaussianBlur stdDeviation="2"/>
<feComposite in2="hardAlpha" operator="arithmetic" k2="-1" k3="1"/>
<feColorMatrix type="matrix" values="0 0 0 0 0.0352941 0 0 0 0 0.0352941 0 0 0 0 0.0352941 0 0 0 0.7 0"/>
<feBlend mode="normal" in2="shape" result="effect1_innerShadow_157_8979"/>
</filter>
<filter id="filter2_i_157_8979" x="-228.437" y="175.017" width="478.854" height="584.566" filterUnits="userSpaceOnUse" color-interpolation-filters="sRGB">
<feFlood flood-opacity="0" result="BackgroundImageFix"/>
<feBlend mode="normal" in="SourceGraphic" in2="BackgroundImageFix" result="shape"/>
<feColorMatrix in="SourceAlpha" type="matrix" values="0 0 0 0 0 0 0 0 0 0 0 0 0 0 0 0 0 0 127 0" result="hardAlpha"/>
<feOffset dy="4"/>
<feGaussianBlur stdDeviation="2"/>
<feComposite in2="hardAlpha" operator="arithmetic" k2="-1" k3="1"/>
<feColorMatrix type="matrix" values="0 0 0 0 0.0352941 0 0 0 0 0.0352941 0 0 0 0 0.0352941 0 0 0 0.7 0"/>
<feBlend mode="normal" in2="shape" result="effect1_innerShadow_157_8979"/>
</filter>
<filter id="filter3_i_157_8979" x="-95.3933" y="182.079" width="253.048" height="260.275" filterUnits="userSpaceOnUse" color-interpolation-filters="sRGB">
<feFlood flood-opacity="0" result="BackgroundImageFix"/>
<feBlend mode="normal" in="SourceGraphic" in2="BackgroundImageFix" result="shape"/>
<feColorMatrix in="SourceAlpha" type="matrix" values="0 0 0 0 0 0 0 0 0 0 0 0 0 0 0 0 0 0 127 0" result="hardAlpha"/>
<feOffset dy="4"/>
<feGaussianBlur stdDeviation="2"/>
<feComposite in2="hardAlpha" operator="arithmetic" k2="-1" k3="1"/>
<feColorMatrix type="matrix" values="0 0 0 0 0.0352941 0 0 0 0 0.0352941 0 0 0 0 0.0352941 0 0 0 0.8 0"/>
<feBlend mode="normal" in2="shape" result="effect1_innerShadow_157_8979"/>
</filter>
<filter id="filter4_f_157_8979" x="-93.8289" y="141.568" width="293.024" height="291.264" filterUnits="userSpaceOnUse" color-interpolation-filters="sRGB">
<feFlood flood-opacity="0" result="BackgroundImageFix"/>
<feBlend mode="normal" in="SourceGraphic" in2="BackgroundImageFix" result="shape"/>
<feGaussianBlur stdDeviation="62.0735" result="effect1_foregroundBlur_157_8979"/>
</filter>
<filter id="filter5_f_157_8979" x="103.211" y="145.314" width="126.723" height="124.963" filterUnits="userSpaceOnUse" color-interpolation-filters="sRGB">
<feFlood flood-opacity="0" result="BackgroundImageFix"/>
<feBlend mode="normal" in="SourceGraphic" in2="BackgroundImageFix" result="shape"/>
<feGaussianBlur stdDeviation="20.4984" result="effect1_foregroundBlur_157_8979"/>
</filter>
<filter id="filter6_f_157_8979" x="52.805" y="278.376" width="126.723" height="124.963" filterUnits="userSpaceOnUse" color-interpolation-filters="sRGB">
<feFlood flood-opacity="0" result="BackgroundImageFix"/>
<feBlend mode="normal" in="SourceGraphic" in2="BackgroundImageFix" result="shape"/>
<feGaussianBlur stdDeviation="20.4984" result="effect1_foregroundBlur_157_8979"/>
</filter>
<filter id="filter7_f_157_8979" x="-93.7981" y="265.749" width="137.017" height="135.771" filterUnits="userSpaceOnUse" color-interpolation-filters="sRGB">
<feFlood flood-opacity="0" result="BackgroundImageFix"/>
<feBlend mode="normal" in="SourceGraphic" in2="BackgroundImageFix" result="shape"/>
<feGaussianBlur stdDeviation="27.1813" result="effect1_foregroundBlur_157_8979"/>
</filter>
</defs>
</svg>
