<svg width="12" height="36" viewBox="0 0 12 36" fill="none" xmlns="http://www.w3.org/2000/svg">
<path d="M4.83632 0.982082C0.130589 2.15017 -0.269898 2.41716 0.531077 3.652C0.798069 4.08586 2.23315 3.85224 5.60392 2.85102C6.00441 2.7509 5.70404 3.58525 4.6027 5.78793C1.23193 12.4961 0.731321 19.6381 3.10087 27.0805C3.80173 29.35 6.00441 33.5551 7.10575 34.7232C7.43949 35.1236 7.70648 35.1236 8.54083 34.7565C9.10819 34.5229 9.57542 34.2893 9.57542 34.1892C9.57542 34.1224 9.20831 33.5551 8.77445 32.9877C7.43949 31.2189 5.63729 27.2808 4.83632 24.5107C3.86847 21.0065 3.86847 15.6333 4.83632 12.0289C5.60392 9.19208 7.90672 4.21936 8.27384 4.61984C8.40733 4.78671 8.74107 5.92143 8.97469 7.22301C9.4753 9.62594 9.57542 9.72606 11.1106 9.22545C11.3776 9.1587 11.1774 7.72362 10.5099 4.65322C10.0093 2.21692 9.54205 0.114361 9.4753 0.0142403C9.44193 -0.0858841 7.33937 0.347977 4.83632 0.982082Z" fill="#090909"/>
</svg>
