<svg width="12" height="36" viewBox="0 0 12 36" fill="none" xmlns="http://www.w3.org/2000/svg">
<path d="M3.85705 0.783211C3.48994 0.983452 3.12282 1.1837 3.05607 1.25045C3.0227 1.28382 3.32307 1.85117 3.7903 2.4519C4.25754 3.05264 5.15863 4.62121 5.82611 5.95617C9.53062 13.3652 9.36375 21.6753 5.42563 29.2178C3.65681 32.5218 3.82368 32.5886 3.0227 28.3167C2.65559 26.5145 2.58884 26.4144 1.65437 26.4144C1.08701 26.4144 0.686523 26.5813 0.686523 26.8483C0.686523 27.4824 2.32185 35.8259 2.45534 35.9927C2.52209 36.0595 4.5579 35.659 6.96083 35.0916C9.33038 34.5577 11.3996 34.0904 11.4997 34.0904C11.8001 34.0904 11.7333 32.9891 11.4329 32.5218C11.2327 32.1881 10.6653 32.1881 8.82977 32.5886C7.56156 32.8556 6.42684 33.0892 6.29335 33.0892C6.15985 33.0892 6.56034 32.2215 7.16107 31.1869C12.3007 22.3428 12.2673 11.7632 7.06095 3.15276C5.42563 0.449467 4.99176 0.11573 3.85705 0.783211Z" fill="#090909"/>
</svg>
